<svg width="272" height="106" viewBox="0 0 272 106" fill="none" xmlns="http://www.w3.org/2000/svg">
<path d="M22.8069 51.9468C29.584 52.8735 33.349 56.8123 33.349 62.8943C33.349 70.2506 26.1665 74.0156 17.8834 74.0156C13.8288 74.0156 2.0124 74.0156 2.0124 74.0156V73.3205C3.69218 73.3205 3.69218 71.1195 3.69218 69.5555V37.5238C3.69218 35.902 3.69218 33.7588 2.0124 33.7588V33.0637H16.2616C24.5446 33.0637 29.2944 36.2495 29.2944 43.0266C29.2944 46.3861 26.8616 50.9621 22.8069 51.9468ZM8.44191 33.8167V51.9468H16.3195C20.6638 51.9468 24.1392 48.5872 24.1392 43.0266C24.1392 37.7555 20.6058 33.8167 15.3348 33.8167H8.44191ZM16.2037 73.3205C23.0386 73.3205 27.3829 69.3238 27.3829 62.8943C27.3829 55.8276 22.6911 52.8735 16.3195 52.8735H8.49983V73.3205H16.2037ZM43.9427 33.7588C42.2629 33.7588 42.2629 35.902 42.2629 37.5238V69.5555C42.2629 71.1195 42.2629 73.3205 43.9427 73.3205V74.0156H35.4279V73.3205C37.1077 73.3205 37.1077 71.1774 37.1077 69.5555V37.5238C37.1077 35.902 37.1077 33.7588 35.4279 33.7588V33.0637H43.9427V33.7588ZM77.8917 33.0637L79.6874 41.6943H78.6447C78.0655 39.4932 73.8371 33.8167 69.8983 33.8167H64.9169V69.5555C64.9169 71.1195 64.9169 73.3205 66.5966 73.3205V74.0156H58.0819V73.3205C59.7617 73.3205 59.7617 71.1774 59.7617 69.5555V33.8167H54.7803C50.8415 33.8167 46.671 39.4932 46.0338 41.6943H44.9912L46.8447 33.0637H77.8917Z" fill="url(#paint0_radial_786_331)"/>
<path d="M145.967 52.8156H163.576V57.3916C163.576 65.385 156.973 74.5949 147.01 74.5949C132.819 74.5949 127.605 63.5315 127.605 53.6266C127.605 38.7402 138.959 32.2528 145.909 32.2528C157.842 32.2528 161.665 40.0725 161.665 40.0725L153.845 45.5752L153.381 44.996C157.784 40.0145 153.439 33.3533 146.662 33.3533C138.263 33.3533 133.34 42.7369 133.34 53.3949C133.34 65.6167 139.422 73.7839 146.778 73.7839C154.366 73.7839 158.305 67.0069 158.305 57.797V53.7424H145.967V52.8156ZM186.051 74.1315H184.545C175.335 74.1315 165.546 66.891 165.546 53.5107C165.546 40.0145 175.509 32.8899 185.298 32.8899C194.798 32.8899 204.876 40.1304 204.876 53.5107C204.876 67.5861 193.639 74.1315 186.051 74.1315ZM185.182 33.7009C177.594 33.7009 171.628 42.3894 171.628 53.5107C171.628 62.4309 177.71 73.2626 185.182 73.2626C192.539 73.2626 198.794 64.1686 198.794 53.4528C198.794 42.3894 192.828 33.7009 185.182 33.7009ZM232.603 74.0735L207.175 74.0156V73.3205C208.855 73.3205 208.855 71.1195 208.855 69.5555V37.5238C208.855 35.902 208.855 33.7588 207.175 33.7588V33.0637H215.689V33.7588C214.01 33.7588 214.01 35.902 214.01 37.5238V73.3785H224.61C228.549 73.3785 232.777 67.5861 233.356 65.4429H234.399L232.603 74.0735ZM250.791 33.0637C260.464 33.0637 269.616 39.4932 269.616 53.3369C269.616 63.2419 263.534 74.0156 249.98 74.0156H235.557V73.3205C237.237 73.3205 237.237 71.1195 237.237 69.5555V37.5238C237.237 35.902 237.237 33.7588 235.557 33.7588V33.0637H250.791ZM248.416 73.0888C255.715 73.0888 264.345 68.3391 264.345 53.3369C264.345 40.5938 257.394 33.7009 248.764 33.7009H242.392V73.0888H248.416Z" fill="url(#paint1_radial_786_331)"/>
<path d="M89.7149 33.4076L103.036 47.7879L155.814 0L126.951 33.4076L108.111 53.1884L127.205 73.1576H116.929L102.783 57.8981L88.3193 73.1576L49.8142 106L97.7711 52.4348L79.5018 33.4076H89.7149Z" fill="url(#paint2_radial_786_331)"/>
<defs>
<radialGradient id="paint0_radial_786_331" cx="0" cy="0" r="1" gradientUnits="userSpaceOnUse" gradientTransform="translate(1.29274 59.4094) rotate(-18.4796) scale(83.2697 472.272)">
<stop stop-color="#FFF2AD"/>
<stop offset="0.26" stop-color="#FFD700"/>
<stop offset="0.638994" stop-color="#594B00"/>
<stop offset="0.75" stop-color="#FFD700"/>
<stop offset="1" stop-color="#322A00"/>
</radialGradient>
<radialGradient id="paint1_radial_786_331" cx="0" cy="0" r="1" gradientUnits="userSpaceOnUse" gradientTransform="translate(128.616 59.4094) rotate(-10.4472) scale(145.557 489.693)">
<stop stop-color="#FFF2AD"/>
<stop offset="0.26" stop-color="#FFD700"/>
<stop offset="0.638994" stop-color="#594B00"/>
<stop offset="0.75" stop-color="#FFD700"/>
<stop offset="1" stop-color="#322A00"/>
</radialGradient>
<radialGradient id="paint2_radial_786_331" cx="0" cy="0" r="1" gradientUnits="userSpaceOnUse" gradientTransform="translate(51.5271 68.2375) rotate(-33.1082) scale(124.926 1078.36)">
<stop stop-color="#FFF2AD"/>
<stop offset="0.26" stop-color="#FFD700"/>
<stop offset="0.638994" stop-color="#594B00"/>
<stop offset="0.75" stop-color="#FFD700"/>
<stop offset="1" stop-color="#322A00"/>
</radialGradient>
</defs>
</svg>
