<svg width="285" height="39" viewBox="0 0 285 39" fill="none" xmlns="http://www.w3.org/2000/svg">
<path d="M5.36977 22.8509C4.70711 22.8509 4.10044 22.7296 3.54977 22.4869C3.00844 22.2349 2.54177 21.8896 2.14977 21.4509C1.75777 21.0123 1.45444 20.4989 1.23977 19.9109C1.02511 19.3229 0.917773 18.6883 0.917773 18.0069C0.917773 17.3349 1.02511 16.7096 1.23977 16.1309C1.45444 15.5429 1.75777 15.0296 2.14977 14.5909C2.54177 14.1523 3.00844 13.8116 3.54977 13.5689C4.10044 13.3169 4.70711 13.1909 5.36977 13.1909C6.03244 13.1909 6.63444 13.3169 7.17577 13.5689C7.72644 13.8116 8.19777 14.1523 8.58977 14.5909C8.98177 15.0296 9.28511 15.5429 9.49977 16.1309C9.71444 16.7096 9.82177 17.3349 9.82177 18.0069C9.82177 18.6883 9.71444 19.3229 9.49977 19.9109C9.28511 20.4989 8.98177 21.0123 8.58977 21.4509C8.19777 21.8896 7.72644 22.2349 7.17577 22.4869C6.63444 22.7296 6.03244 22.8509 5.36977 22.8509ZM5.38377 21.9829C6.12111 21.9829 6.74644 21.8149 7.25977 21.4789C7.78244 21.1336 8.17911 20.6623 8.44977 20.0649C8.72977 19.4583 8.86977 18.7723 8.86977 18.0069C8.86977 17.2509 8.72977 16.5743 8.44977 15.9769C8.17911 15.3796 7.78244 14.9083 7.25977 14.5629C6.74644 14.2176 6.12111 14.0449 5.38377 14.0449C4.63711 14.0449 4.00244 14.2176 3.47977 14.5629C2.95711 14.9083 2.56044 15.3796 2.28977 15.9769C2.01911 16.5743 1.88377 17.2509 1.88377 18.0069C1.88377 18.7723 2.01911 19.4583 2.28977 20.0649C2.56044 20.6623 2.95711 21.1336 3.47977 21.4789C4.00244 21.8149 4.63711 21.9829 5.38377 21.9829ZM16.502 22.7109H15.578V13.3309H16.404L20.982 19.9949L21.794 21.2409L21.738 20.0229V13.3309H22.662V22.7109H21.836L17.132 15.8789L16.446 14.8429L16.502 15.8929V22.7109Z" fill="white"/>
<path d="M92.2438 18.5622H92.2407C91.5141 18.2136 90.5875 18.0354 89.4859 18.0354H86.3516C85.5165 18.0354 84.8487 17.803 84.3715 17.3553L84.3482 17.332C83.8819 16.8409 83.6572 16.2878 83.6572 15.6417C83.6572 14.9956 83.8896 14.3991 84.3482 13.9157C84.81 13.4245 85.4436 13.1766 86.2245 13.1766H93.9373V11.5018H85.9379C85.0687 11.5018 84.3219 11.7032 83.6541 12.1138C82.9863 12.5042 82.4813 13.0077 82.1125 13.6492C81.7438 14.2922 81.5609 14.9723 81.5609 15.7346C81.5609 16.6286 81.7515 17.3863 82.1311 17.9905C82.5386 18.6056 83.0793 19.0658 83.7812 19.402C84.5109 19.7119 85.377 19.8699 86.3516 19.8699H89.6486C90.2033 19.8699 90.6975 19.9969 91.1159 20.2495C91.5435 20.4772 91.8611 20.8026 92.0718 21.2163C92.2779 21.6036 92.374 21.9972 92.374 22.4589C92.374 22.9206 92.2609 23.3839 92.0362 23.8053C91.8115 24.2314 91.466 24.5862 91.0152 24.8651C90.5922 25.116 90.0747 25.24 89.489 25.24H82.0676V26.9118H89.8423C90.7735 26.9118 91.559 26.7026 92.2454 26.2734C92.9596 25.8396 93.4957 25.2989 93.8877 24.6094C94.2843 23.9013 94.4734 23.1669 94.4734 22.3613C94.4734 21.4255 94.275 20.6244 93.8908 19.9892C93.5298 19.3632 92.9891 18.8938 92.2438 18.5622Z" fill="url(#paint0_linear_712_339)"/>
<path d="M110.658 12.2103V12.2057C109.454 11.4837 108.041 11.1165 106.461 11.1165C104.88 11.1165 103.471 11.4837 102.259 12.2072C101.05 12.9075 100.081 13.8867 99.374 15.1169C98.6675 16.3208 98.3096 17.6982 98.3096 19.2073C98.3096 20.7163 98.6675 22.1092 99.374 23.3317C100.081 24.5386 101.052 25.5178 102.259 26.2414C103.412 26.9154 104.76 27.2702 106.259 27.2981H106.461C108.041 27.3012 109.451 26.9495 110.658 26.246C111.89 25.5225 112.86 24.5433 113.548 23.341C114.254 22.1139 114.612 20.7256 114.612 19.2135C114.612 17.7013 114.254 16.2883 113.548 15.0844C112.86 13.8805 111.89 12.9137 110.658 12.2103ZM112.479 19.215V19.2119C112.479 20.4034 112.226 21.4988 111.726 22.4702C111.225 23.4262 110.519 24.1962 109.629 24.7648C108.743 25.3304 107.645 25.6278 106.456 25.6278C105.268 25.6278 104.203 25.3381 103.283 24.7648C102.394 24.1962 101.687 23.4231 101.182 22.4671C100.685 21.5003 100.429 20.4049 100.429 19.2135C100.429 18.022 100.682 16.939 101.182 15.9908C101.683 15.0116 102.394 14.226 103.288 13.6574C104.203 13.0842 105.272 12.7991 106.456 12.7991C107.64 12.7991 108.728 13.0888 109.629 13.6621C110.523 14.2353 111.23 15.0162 111.73 15.9877C112.228 16.939 112.483 18.022 112.483 19.215H112.479Z" fill="url(#paint1_linear_712_339)"/>
<path d="M130.161 11.9859L130.158 11.9905H130.16C129.096 11.4157 127.842 11.1213 126.428 11.1213C125.013 11.1213 123.775 11.4157 122.687 11.9998C121.597 12.5607 120.761 13.3354 120.136 14.3564C119.537 15.3697 119.234 16.5736 119.234 17.9355V26.9187H121.332V17.9665C121.332 16.9144 121.569 15.9895 122.035 15.2225C122.517 14.4416 123.154 13.8343 123.927 13.4113C124.711 12.9976 125.551 12.7885 126.428 12.7885C127.304 12.7885 128.136 12.9976 128.897 13.4113C129.686 13.8296 130.323 14.437 130.792 15.2256C131.277 15.991 131.522 16.9082 131.522 17.9603V26.9125H133.623V17.9293C133.623 16.572 133.308 15.3635 132.69 14.3502C132.084 13.3245 131.257 12.5545 130.161 11.9859Z" fill="url(#paint2_linear_712_339)"/>
<path d="M141.266 11.5001H139.137V26.9148H141.266V11.5001Z" fill="url(#paint3_linear_712_339)"/>
<path d="M154.147 13.175H155.74V11.5001H154.245C152.641 11.5001 151.188 11.8487 149.938 12.5336C148.687 13.2153 147.685 14.1542 146.955 15.3193C146.233 16.4566 145.867 17.7642 145.867 19.2082C145.867 20.6522 146.233 21.9661 146.955 23.1281C147.682 24.2731 148.687 25.1981 149.938 25.8829C151.033 26.4779 153.177 26.9163 154.136 26.9163H155.74V25.2415H154.147C152.99 25.2415 151.925 24.975 150.987 24.4482C150.077 23.9028 149.336 23.1638 148.788 22.2543C148.264 21.3417 147.996 20.316 147.996 19.2051C147.996 18.0942 148.264 17.0655 148.793 16.1529C149.336 15.248 150.079 14.5198 150.991 13.9977C151.927 13.4539 152.985 13.175 154.147 13.175Z" fill="url(#paint4_linear_712_339)"/>
<path d="M150.992 14.0046V13.9988L150.99 14.0007L150.992 14.0046Z" fill="url(#paint5_linear_712_339)"/>
<path d="M57.1073 23.8715L57.112 23.8684C57.112 23.8684 57.1073 23.8715 57.1042 23.8731C57.1057 23.8731 57.1073 23.8731 57.1089 23.8731L57.1073 23.8715Z" fill="url(#paint6_linear_712_339)"/>
<path d="M57.1042 23.8731C49.8516 26.0515 43.854 29.2294 40.0968 32.951L39.931 33.1168C40.9303 34.0619 42.0257 34.9079 43.2094 35.6268L43.4635 35.3153C44.4892 34.0619 45.5893 32.8518 46.7342 31.7115C49.8066 28.65 53.3206 26.0004 57.1042 23.8731Z" fill="url(#paint7_linear_712_339)"/>
<path d="M57.9424 20.643H34C34.2897 24.5273 35.7322 28.0893 37.9958 30.9866L38.0996 30.8828C40.4252 28.5882 43.4527 26.5027 47.1045 24.6853C50.3055 23.091 53.9806 21.7229 57.9424 20.643Z" fill="url(#paint8_linear_712_339)"/>
<path d="M48.7639 4.67909C55.2542 11.1462 63.4225 15.4224 72.3825 17.0446C71.3026 7.4571 63.1421 0 53.2261 0C50.6077 0 48.1117 0.522137 45.8325 1.46415C46.7575 2.57815 47.746 3.6627 48.7639 4.68064V4.67909Z" fill="url(#paint9_linear_712_339)"/>
<path d="M40.0968 5.47039C43.854 9.19817 49.8547 12.3713 57.1088 14.5543C53.3222 12.4224 49.8051 9.77454 46.7311 6.71144C45.5893 5.5742 44.4908 4.36415 43.4604 3.10761L43.2063 2.79619C42.0226 3.51509 40.9272 4.3595 39.9325 5.30461L40.0983 5.47039H40.0968Z" fill="url(#paint10_linear_712_339)"/>
<path d="M48.7639 33.7415C47.7414 34.7595 46.7544 35.844 45.8325 36.958C48.1086 37.9 50.6077 38.4222 53.2261 38.4222C63.1421 38.4222 71.3026 30.9635 72.3856 21.3729C63.4271 22.9951 55.2589 27.2714 48.767 33.7384L48.7639 33.7415Z" fill="url(#paint11_linear_712_339)"/>
<path d="M47.0999 13.7309V13.734C43.4511 11.9166 40.4252 9.8296 38.0996 7.53809L37.9958 7.43428C35.7322 10.3316 34.2897 13.8936 34 17.7779H57.9377C53.9775 16.6979 50.3055 15.3299 47.0999 13.7309Z" fill="url(#paint12_linear_712_339)"/>
<path d="M170.933 22.7109H167.657V21.8989H170.779C171.572 21.8989 172.165 21.7589 172.557 21.4789C172.958 21.1896 173.159 20.7276 173.159 20.0929C173.159 19.6636 173.047 19.3183 172.823 19.0569C172.608 18.7956 172.31 18.6043 171.927 18.4829C171.554 18.3616 171.124 18.3009 170.639 18.3009H167.657V17.4889H170.499C170.938 17.4889 171.325 17.4376 171.661 17.3349C171.997 17.2323 172.258 17.0596 172.445 16.8169C172.641 16.5743 172.739 16.2429 172.739 15.8229C172.739 15.3936 172.641 15.0576 172.445 14.8149C172.258 14.5723 171.997 14.3996 171.661 14.2969C171.334 14.1943 170.961 14.1429 170.541 14.1429H167.657V13.3309H170.835C171.479 13.3309 172.006 13.4336 172.417 13.6389C172.837 13.8349 173.15 14.1103 173.355 14.4649C173.57 14.8196 173.677 15.2349 173.677 15.7109C173.677 15.9629 173.64 16.2056 173.565 16.4389C173.49 16.6723 173.364 16.8869 173.187 17.0829C173.01 17.2696 172.776 17.4283 172.487 17.5589C172.198 17.6896 171.843 17.7783 171.423 17.8249C172.086 17.8903 172.613 18.0396 173.005 18.2729C173.397 18.4969 173.677 18.7769 173.845 19.1129C174.013 19.4489 174.097 19.8129 174.097 20.2049C174.097 20.7276 173.971 21.1803 173.719 21.5629C173.476 21.9363 173.122 22.2209 172.655 22.4169C172.188 22.6129 171.614 22.7109 170.933 22.7109ZM168.077 22.7109H167.153V13.3309H168.077V22.7109ZM180.841 22.7109H179.917V13.3309H180.841V22.7109ZM185.881 22.7109H180.239V21.8989H185.881V22.7109ZM194.347 22.8509C193.684 22.8509 193.078 22.7296 192.527 22.4869C191.986 22.2349 191.519 21.8896 191.127 21.4509C190.735 21.0123 190.432 20.4989 190.217 19.9109C190.002 19.3229 189.895 18.6883 189.895 18.0069C189.895 17.3349 190.002 16.7096 190.217 16.1309C190.432 15.5429 190.735 15.0296 191.127 14.5909C191.519 14.1523 191.986 13.8116 192.527 13.5689C193.078 13.3169 193.684 13.1909 194.347 13.1909C195.01 13.1909 195.612 13.3169 196.153 13.5689C196.704 13.8116 197.175 14.1523 197.567 14.5909C197.959 15.0296 198.262 15.5429 198.477 16.1309C198.692 16.7096 198.799 17.3349 198.799 18.0069C198.799 18.6883 198.692 19.3229 198.477 19.9109C198.262 20.4989 197.959 21.0123 197.567 21.4509C197.175 21.8896 196.704 22.2349 196.153 22.4869C195.612 22.7296 195.01 22.8509 194.347 22.8509ZM194.361 21.9829C195.098 21.9829 195.724 21.8149 196.237 21.4789C196.76 21.1336 197.156 20.6623 197.427 20.0649C197.707 19.4583 197.847 18.7723 197.847 18.0069C197.847 17.2509 197.707 16.5743 197.427 15.9769C197.156 15.3796 196.76 14.9083 196.237 14.5629C195.724 14.2176 195.098 14.0449 194.361 14.0449C193.614 14.0449 192.98 14.2176 192.457 14.5629C191.934 14.9083 191.538 15.3796 191.267 15.9769C190.996 16.5743 190.861 17.2509 190.861 18.0069C190.861 18.7723 190.996 19.4583 191.267 20.0649C191.538 20.6623 191.934 21.1336 192.457 21.4789C192.98 21.8149 193.614 21.9829 194.361 21.9829ZM208.447 22.8229C207.532 22.8229 206.757 22.6129 206.123 22.1929C205.488 21.7729 205.003 21.1989 204.667 20.4709C204.331 19.7429 204.163 18.9216 204.163 18.0069C204.163 17.0829 204.331 16.2616 204.667 15.5429C205.003 14.8149 205.488 14.2409 206.123 13.8209C206.757 13.4009 207.532 13.1909 208.447 13.1909C209.175 13.1909 209.805 13.3216 210.337 13.5829C210.869 13.8349 211.312 14.1896 211.667 14.6469C212.031 15.1043 212.306 15.6409 212.493 16.2569L211.681 16.8029C211.569 16.2616 211.377 15.7856 211.107 15.3749C210.845 14.9549 210.495 14.6283 210.057 14.3949C209.627 14.1616 209.095 14.0449 208.461 14.0449C207.723 14.0449 207.107 14.2176 206.613 14.5629C206.118 14.8989 205.745 15.3656 205.493 15.9629C205.25 16.5509 205.129 17.2323 205.129 18.0069C205.129 18.7723 205.25 19.4536 205.493 20.0509C205.745 20.6483 206.118 21.1196 206.613 21.4649C207.107 21.8009 207.723 21.9689 208.461 21.9689C209.095 21.9689 209.627 21.8523 210.057 21.6189C210.495 21.3856 210.845 21.0636 211.107 20.6529C211.377 20.2329 211.569 19.7523 211.681 19.2109L212.493 19.7569C212.306 20.3636 212.031 20.9003 211.667 21.3669C211.312 21.8243 210.869 22.1836 210.337 22.4449C209.805 22.6969 209.175 22.8229 208.447 22.8229ZM219.022 22.7109H218.098V13.3309H219.022V16.9989L218.98 18.5529L220.184 17.2649L223.908 13.3309H225.07L221.248 17.3209L221.15 17.3909L219.022 19.6449V22.7109ZM225.392 22.7109H224.258L220.66 17.3069L221.332 16.6489L225.392 22.7109ZM233.919 22.8229C233.005 22.8229 232.23 22.6129 231.595 22.1929C230.961 21.7729 230.475 21.1989 230.139 20.4709C229.803 19.7429 229.635 18.9216 229.635 18.0069C229.635 17.0829 229.803 16.2616 230.139 15.5429C230.475 14.8149 230.961 14.2409 231.595 13.8209C232.23 13.4009 233.005 13.1909 233.919 13.1909C234.647 13.1909 235.277 13.3216 235.809 13.5829C236.341 13.8349 236.785 14.1896 237.139 14.6469C237.503 15.1043 237.779 15.6409 237.965 16.2569L237.153 16.8029C237.041 16.2616 236.85 15.7856 236.579 15.3749C236.318 14.9549 235.968 14.6283 235.529 14.3949C235.1 14.1616 234.568 14.0449 233.933 14.0449C233.196 14.0449 232.58 14.2176 232.085 14.5629C231.591 14.8989 231.217 15.3656 230.965 15.9629C230.723 16.5509 230.601 17.2323 230.601 18.0069C230.601 18.7723 230.723 19.4536 230.965 20.0509C231.217 20.6483 231.591 21.1196 232.085 21.4649C232.58 21.8009 233.196 21.9689 233.933 21.9689C234.568 21.9689 235.1 21.8523 235.529 21.6189C235.968 21.3856 236.318 21.0636 236.579 20.6529C236.85 20.2329 237.041 19.7523 237.153 19.2109L237.965 19.7569C237.779 20.3636 237.503 20.9003 237.139 21.3669C236.785 21.8243 236.341 22.1836 235.809 22.4449C235.277 22.6969 234.647 22.8229 233.919 22.8229ZM250.655 22.7109H249.731V13.3309H250.655V22.7109ZM244.495 22.7109H243.571V13.3309H244.495V22.7109ZM250.207 18.3429H243.893V17.5169H250.207V18.3429ZM256.484 22.7109H255.518L259.284 13.3309H260.222L263.988 22.7109H262.966L260.222 15.7249L259.732 14.2689L259.242 15.7249L256.484 22.7109ZM262.21 19.8269H257.226V19.0149H262.21V19.8269ZM269.776 22.7109H268.852V13.3309H269.776V22.7109ZM277.167 22.7109H276.243V13.3309H277.069L281.647 19.9949L282.459 21.2409L282.403 20.0229V13.3309H283.327V22.7109H282.501L277.797 15.8789L277.111 14.8429L277.167 15.8929V22.7109Z" fill="white"/>
<defs>
<linearGradient id="paint0_linear_712_339" x1="34" y1="6.5" x2="161" y2="28" gradientUnits="userSpaceOnUse">
<stop/>
<stop offset="0.113021" stop-color="#FFD700"/>
<stop offset="0.281073" stop-color="#594B00"/>
<stop offset="0.851884" stop-color="#FFD700"/>
<stop offset="1"/>
</linearGradient>
<linearGradient id="paint1_linear_712_339" x1="34" y1="6.5" x2="161" y2="28" gradientUnits="userSpaceOnUse">
<stop/>
<stop offset="0.113021" stop-color="#FFD700"/>
<stop offset="0.281073" stop-color="#594B00"/>
<stop offset="0.851884" stop-color="#FFD700"/>
<stop offset="1"/>
</linearGradient>
<linearGradient id="paint2_linear_712_339" x1="34" y1="6.5" x2="161" y2="28" gradientUnits="userSpaceOnUse">
<stop/>
<stop offset="0.113021" stop-color="#FFD700"/>
<stop offset="0.281073" stop-color="#594B00"/>
<stop offset="0.851884" stop-color="#FFD700"/>
<stop offset="1"/>
</linearGradient>
<linearGradient id="paint3_linear_712_339" x1="34" y1="6.5" x2="161" y2="28" gradientUnits="userSpaceOnUse">
<stop/>
<stop offset="0.113021" stop-color="#FFD700"/>
<stop offset="0.281073" stop-color="#594B00"/>
<stop offset="0.851884" stop-color="#FFD700"/>
<stop offset="1"/>
</linearGradient>
<linearGradient id="paint4_linear_712_339" x1="34" y1="6.5" x2="161" y2="28" gradientUnits="userSpaceOnUse">
<stop/>
<stop offset="0.113021" stop-color="#FFD700"/>
<stop offset="0.281073" stop-color="#594B00"/>
<stop offset="0.851884" stop-color="#FFD700"/>
<stop offset="1"/>
</linearGradient>
<linearGradient id="paint5_linear_712_339" x1="34" y1="6.5" x2="161" y2="28" gradientUnits="userSpaceOnUse">
<stop/>
<stop offset="0.113021" stop-color="#FFD700"/>
<stop offset="0.281073" stop-color="#594B00"/>
<stop offset="0.851884" stop-color="#FFD700"/>
<stop offset="1"/>
</linearGradient>
<linearGradient id="paint6_linear_712_339" x1="34" y1="6.5" x2="161" y2="28" gradientUnits="userSpaceOnUse">
<stop/>
<stop offset="0.113021" stop-color="#FFD700"/>
<stop offset="0.281073" stop-color="#594B00"/>
<stop offset="0.851884" stop-color="#FFD700"/>
<stop offset="1"/>
</linearGradient>
<linearGradient id="paint7_linear_712_339" x1="34" y1="6.5" x2="161" y2="28" gradientUnits="userSpaceOnUse">
<stop/>
<stop offset="0.113021" stop-color="#FFD700"/>
<stop offset="0.281073" stop-color="#594B00"/>
<stop offset="0.851884" stop-color="#FFD700"/>
<stop offset="1"/>
</linearGradient>
<linearGradient id="paint8_linear_712_339" x1="34" y1="6.5" x2="161" y2="28" gradientUnits="userSpaceOnUse">
<stop/>
<stop offset="0.113021" stop-color="#FFD700"/>
<stop offset="0.281073" stop-color="#594B00"/>
<stop offset="0.851884" stop-color="#FFD700"/>
<stop offset="1"/>
</linearGradient>
<linearGradient id="paint9_linear_712_339" x1="34" y1="6.5" x2="161" y2="28" gradientUnits="userSpaceOnUse">
<stop/>
<stop offset="0.113021" stop-color="#FFD700"/>
<stop offset="0.281073" stop-color="#594B00"/>
<stop offset="0.851884" stop-color="#FFD700"/>
<stop offset="1"/>
</linearGradient>
<linearGradient id="paint10_linear_712_339" x1="34" y1="6.5" x2="161" y2="28" gradientUnits="userSpaceOnUse">
<stop/>
<stop offset="0.113021" stop-color="#FFD700"/>
<stop offset="0.281073" stop-color="#594B00"/>
<stop offset="0.851884" stop-color="#FFD700"/>
<stop offset="1"/>
</linearGradient>
<linearGradient id="paint11_linear_712_339" x1="34" y1="6.5" x2="161" y2="28" gradientUnits="userSpaceOnUse">
<stop/>
<stop offset="0.113021" stop-color="#FFD700"/>
<stop offset="0.281073" stop-color="#594B00"/>
<stop offset="0.851884" stop-color="#FFD700"/>
<stop offset="1"/>
</linearGradient>
<linearGradient id="paint12_linear_712_339" x1="34" y1="6.5" x2="161" y2="28" gradientUnits="userSpaceOnUse">
<stop/>
<stop offset="0.113021" stop-color="#FFD700"/>
<stop offset="0.281073" stop-color="#594B00"/>
<stop offset="0.851884" stop-color="#FFD700"/>
<stop offset="1"/>
</linearGradient>
</defs>
</svg>
