<svg width="330" height="86" viewBox="0 0 330 86" fill="none" xmlns="http://www.w3.org/2000/svg">
<g filter="url(#filter0_d_712_339)">
<path d="M28.3698 42.8509C27.7071 42.8509 27.1004 42.7296 26.5498 42.4869C26.0084 42.2349 25.5418 41.8896 25.1498 41.4509C24.7578 41.0123 24.4544 40.4989 24.2398 39.9109C24.0251 39.3229 23.9178 38.6883 23.9178 38.0069C23.9178 37.3349 24.0251 36.7096 24.2398 36.1309C24.4544 35.5429 24.7578 35.0296 25.1498 34.5909C25.5418 34.1523 26.0084 33.8116 26.5498 33.5689C27.1004 33.3169 27.7071 33.1909 28.3698 33.1909C29.0324 33.1909 29.6344 33.3169 30.1758 33.5689C30.7264 33.8116 31.1978 34.1523 31.5898 34.5909C31.9818 35.0296 32.2851 35.5429 32.4998 36.1309C32.7144 36.7096 32.8218 37.3349 32.8218 38.0069C32.8218 38.6883 32.7144 39.3229 32.4998 39.9109C32.2851 40.4989 31.9818 41.0123 31.5898 41.4509C31.1978 41.8896 30.7264 42.2349 30.1758 42.4869C29.6344 42.7296 29.0324 42.8509 28.3698 42.8509ZM28.3838 41.9829C29.1211 41.9829 29.7464 41.8149 30.2598 41.4789C30.7824 41.1336 31.1791 40.6623 31.4498 40.0649C31.7298 39.4583 31.8698 38.7723 31.8698 38.0069C31.8698 37.2509 31.7298 36.5743 31.4498 35.9769C31.1791 35.3796 30.7824 34.9083 30.2598 34.5629C29.7464 34.2176 29.1211 34.0449 28.3838 34.0449C27.6371 34.0449 27.0024 34.2176 26.4798 34.5629C25.9571 34.9083 25.5604 35.3796 25.2898 35.9769C25.0191 36.5743 24.8838 37.2509 24.8838 38.0069C24.8838 38.7723 25.0191 39.4583 25.2898 40.0649C25.5604 40.6623 25.9571 41.1336 26.4798 41.4789C27.0024 41.8149 27.6371 41.9829 28.3838 41.9829ZM39.502 42.7109H38.578V33.3309H39.404L43.982 39.9949L44.794 41.2409L44.738 40.0229V33.3309H45.662V42.7109H44.836L40.132 35.8789L39.446 34.8429L39.502 35.8929V42.7109Z" fill="white"/>
<path d="M115.244 38.5622H115.241C114.514 38.2136 113.588 38.0354 112.486 38.0354H109.352C108.516 38.0354 107.849 37.803 107.371 37.3553L107.348 37.332C106.882 36.8409 106.657 36.2878 106.657 35.6417C106.657 34.9956 106.89 34.3991 107.348 33.9157C107.81 33.4245 108.444 33.1766 109.225 33.1766H116.937V31.5018H108.938C108.069 31.5018 107.322 31.7032 106.654 32.1138C105.986 32.5042 105.481 33.0077 105.113 33.6492C104.744 34.2922 104.561 34.9723 104.561 35.7346C104.561 36.6286 104.751 37.3863 105.131 37.9905C105.539 38.6056 106.079 39.0658 106.781 39.402C107.511 39.7119 108.377 39.8699 109.352 39.8699H112.649C113.203 39.8699 113.698 39.9969 114.116 40.2495C114.544 40.4772 114.861 40.8026 115.072 41.2163C115.278 41.6036 115.374 41.9972 115.374 42.4589C115.374 42.9206 115.261 43.3839 115.036 43.8053C114.812 44.2314 114.466 44.5862 114.015 44.8651C113.592 45.116 113.075 45.24 112.489 45.24H105.068V46.9118H112.842C113.773 46.9118 114.559 46.7026 115.245 46.2734C115.96 45.8396 116.496 45.2989 116.888 44.6094C117.284 43.9013 117.473 43.1669 117.473 42.3613C117.473 41.4255 117.275 40.6244 116.891 39.9892C116.53 39.3632 115.989 38.8938 115.244 38.5622Z" fill="url(#paint0_linear_712_339)"/>
<path d="M133.658 32.2103V32.2057C132.454 31.4837 131.041 31.1165 129.461 31.1165C127.88 31.1165 126.471 31.4837 125.259 32.2072C124.05 32.9075 123.081 33.8867 122.374 35.1169C121.668 36.3208 121.31 37.6982 121.31 39.2073C121.31 40.7163 121.668 42.1092 122.374 43.3317C123.081 44.5386 124.052 45.5178 125.259 46.2414C126.412 46.9154 127.76 47.2702 129.259 47.2981H129.461C131.041 47.3012 132.451 46.9495 133.658 46.246C134.89 45.5225 135.86 44.5433 136.548 43.341C137.254 42.1139 137.612 40.7256 137.612 39.2135C137.612 37.7013 137.254 36.2883 136.548 35.0844C135.86 33.8805 134.89 32.9137 133.658 32.2103ZM135.479 39.215V39.2119C135.479 40.4034 135.226 41.4988 134.726 42.4702C134.225 43.4262 133.519 44.1962 132.629 44.7648C131.743 45.3304 130.645 45.6278 129.456 45.6278C128.268 45.6278 127.203 45.3381 126.283 44.7648C125.394 44.1962 124.687 43.4231 124.182 42.4671C123.685 41.5003 123.429 40.4049 123.429 39.2135C123.429 38.022 123.682 36.939 124.182 35.9908C124.683 35.0116 125.394 34.226 126.288 33.6574C127.203 33.0842 128.272 32.7991 129.456 32.7991C130.64 32.7991 131.728 33.0888 132.629 33.6621C133.523 34.2353 134.23 35.0162 134.73 35.9877C135.228 36.939 135.483 38.022 135.483 39.215H135.479Z" fill="url(#paint1_linear_712_339)"/>
<path d="M153.161 31.9859L153.158 31.9905H153.16C152.096 31.4157 150.842 31.1213 149.428 31.1213C148.013 31.1213 146.775 31.4157 145.687 31.9998C144.597 32.5607 143.761 33.3354 143.136 34.3564C142.537 35.3697 142.234 36.5736 142.234 37.9355V46.9187H144.332V37.9665C144.332 36.9144 144.569 35.9895 145.035 35.2225C145.517 34.4416 146.154 33.8343 146.927 33.4113C147.711 32.9976 148.551 32.7885 149.428 32.7885C150.304 32.7885 151.136 32.9976 151.897 33.4113C152.686 33.8296 153.323 34.437 153.792 35.2256C154.277 35.991 154.522 36.9082 154.522 37.9603V46.9125H156.623V37.9293C156.623 36.572 156.308 35.3635 155.69 34.3502C155.084 33.3245 154.257 32.5545 153.161 31.9859Z" fill="url(#paint2_linear_712_339)"/>
<path d="M164.266 31.5001H162.137V46.9148H164.266V31.5001Z" fill="url(#paint3_linear_712_339)"/>
<path d="M177.147 33.175H178.74V31.5001H177.245C175.641 31.5001 174.188 31.8487 172.938 32.5336C171.687 33.2153 170.685 34.1542 169.955 35.3193C169.233 36.4566 168.867 37.7642 168.867 39.2082C168.867 40.6522 169.233 41.9661 169.955 43.1281C170.682 44.2731 171.687 45.1981 172.938 45.8829C174.033 46.4779 176.177 46.9163 177.136 46.9163H178.74V45.2415H177.147C175.99 45.2415 174.925 44.975 173.987 44.4482C173.077 43.9028 172.336 43.1638 171.788 42.2543C171.264 41.3417 170.996 40.316 170.996 39.2051C170.996 38.0942 171.264 37.0655 171.793 36.1529C172.336 35.248 173.079 34.5198 173.991 33.9977C174.927 33.4539 175.985 33.175 177.147 33.175Z" fill="url(#paint4_linear_712_339)"/>
<path d="M173.992 34.0046V33.9988L173.99 34.0007L173.992 34.0046Z" fill="url(#paint5_linear_712_339)"/>
<path d="M80.1073 43.8715L80.112 43.8684C80.112 43.8684 80.1073 43.8715 80.1042 43.8731C80.1057 43.8731 80.1073 43.8731 80.1089 43.8731L80.1073 43.8715Z" fill="url(#paint6_linear_712_339)"/>
<path d="M80.1042 43.8731C72.8516 46.0515 66.854 49.2294 63.0968 52.951L62.931 53.1168C63.9303 54.0619 65.0257 54.9079 66.2094 55.6268L66.4635 55.3153C67.4892 54.0619 68.5893 52.8518 69.7342 51.7115C72.8066 48.65 76.3206 46.0004 80.1042 43.8731Z" fill="url(#paint7_linear_712_339)"/>
<path d="M80.9424 40.643H57C57.2897 44.5273 58.7322 48.0893 60.9958 50.9866L61.0996 50.8828C63.4252 48.5882 66.4527 46.5027 70.1045 44.6853C73.3055 43.091 76.9806 41.7229 80.9424 40.643Z" fill="url(#paint8_linear_712_339)"/>
<path d="M71.7639 24.6791C78.2542 31.1462 86.4225 35.4224 95.3825 37.0446C94.3026 27.4571 86.1421 20 76.2261 20C73.6077 20 71.1117 20.5221 68.8325 21.4642C69.7575 22.5781 70.746 23.6627 71.7639 24.6806V24.6791Z" fill="url(#paint9_linear_712_339)"/>
<path d="M63.0968 25.4704C66.854 29.1982 72.8547 32.3713 80.1088 34.5543C76.3222 32.4224 72.8051 29.7745 69.7311 26.7114C68.5893 25.5742 67.4908 24.3641 66.4604 23.1076L66.2063 22.7962C65.0226 23.5151 63.9272 24.3595 62.9325 25.3046L63.0983 25.4704H63.0968Z" fill="url(#paint10_linear_712_339)"/>
<path d="M71.7639 53.7415C70.7414 54.7595 69.7544 55.844 68.8325 56.958C71.1086 57.9001 73.6077 58.4222 76.2261 58.4222C86.1421 58.4222 94.3026 50.9635 95.3856 41.3729C86.4271 42.9951 78.2589 47.2714 71.767 53.7384L71.7639 53.7415Z" fill="url(#paint11_linear_712_339)"/>
<path d="M70.0999 33.7309V33.734C66.4511 31.9166 63.4252 29.8296 61.0996 27.5381L60.9958 27.4343C58.7322 30.3316 57.2897 33.8936 57 37.7779H80.9377C76.9775 36.6979 73.3055 35.3299 70.0999 33.7309Z" fill="url(#paint12_linear_712_339)"/>
<path d="M193.933 42.7109H190.657V41.8989H193.779C194.572 41.8989 195.165 41.7589 195.557 41.4789C195.958 41.1896 196.159 40.7276 196.159 40.0929C196.159 39.6636 196.047 39.3183 195.823 39.0569C195.608 38.7956 195.31 38.6043 194.927 38.4829C194.554 38.3616 194.124 38.3009 193.639 38.3009H190.657V37.4889H193.499C193.938 37.4889 194.325 37.4376 194.661 37.3349C194.997 37.2323 195.258 37.0596 195.445 36.8169C195.641 36.5743 195.739 36.2429 195.739 35.8229C195.739 35.3936 195.641 35.0576 195.445 34.8149C195.258 34.5723 194.997 34.3996 194.661 34.2969C194.334 34.1943 193.961 34.1429 193.541 34.1429H190.657V33.3309H193.835C194.479 33.3309 195.006 33.4336 195.417 33.6389C195.837 33.8349 196.15 34.1103 196.355 34.4649C196.57 34.8196 196.677 35.2349 196.677 35.7109C196.677 35.9629 196.64 36.2056 196.565 36.4389C196.49 36.6723 196.364 36.8869 196.187 37.0829C196.01 37.2696 195.776 37.4283 195.487 37.5589C195.198 37.6896 194.843 37.7783 194.423 37.8249C195.086 37.8903 195.613 38.0396 196.005 38.2729C196.397 38.4969 196.677 38.7769 196.845 39.1129C197.013 39.4489 197.097 39.8129 197.097 40.2049C197.097 40.7276 196.971 41.1803 196.719 41.5629C196.476 41.9363 196.122 42.2209 195.655 42.4169C195.188 42.6129 194.614 42.7109 193.933 42.7109ZM191.077 42.7109H190.153V33.3309H191.077V42.7109ZM203.841 42.7109H202.917V33.3309H203.841V42.7109ZM208.881 42.7109H203.239V41.8989H208.881V42.7109ZM217.347 42.8509C216.684 42.8509 216.078 42.7296 215.527 42.4869C214.986 42.2349 214.519 41.8896 214.127 41.4509C213.735 41.0123 213.432 40.4989 213.217 39.9109C213.002 39.3229 212.895 38.6883 212.895 38.0069C212.895 37.3349 213.002 36.7096 213.217 36.1309C213.432 35.5429 213.735 35.0296 214.127 34.5909C214.519 34.1523 214.986 33.8116 215.527 33.5689C216.078 33.3169 216.684 33.1909 217.347 33.1909C218.01 33.1909 218.612 33.3169 219.153 33.5689C219.704 33.8116 220.175 34.1523 220.567 34.5909C220.959 35.0296 221.262 35.5429 221.477 36.1309C221.692 36.7096 221.799 37.3349 221.799 38.0069C221.799 38.6883 221.692 39.3229 221.477 39.9109C221.262 40.4989 220.959 41.0123 220.567 41.4509C220.175 41.8896 219.704 42.2349 219.153 42.4869C218.612 42.7296 218.01 42.8509 217.347 42.8509ZM217.361 41.9829C218.098 41.9829 218.724 41.8149 219.237 41.4789C219.76 41.1336 220.156 40.6623 220.427 40.0649C220.707 39.4583 220.847 38.7723 220.847 38.0069C220.847 37.2509 220.707 36.5743 220.427 35.9769C220.156 35.3796 219.76 34.9083 219.237 34.5629C218.724 34.2176 218.098 34.0449 217.361 34.0449C216.614 34.0449 215.98 34.2176 215.457 34.5629C214.934 34.9083 214.538 35.3796 214.267 35.9769C213.996 36.5743 213.861 37.2509 213.861 38.0069C213.861 38.7723 213.996 39.4583 214.267 40.0649C214.538 40.6623 214.934 41.1336 215.457 41.4789C215.98 41.8149 216.614 41.9829 217.361 41.9829ZM231.447 42.8229C230.532 42.8229 229.757 42.6129 229.123 42.1929C228.488 41.7729 228.003 41.1989 227.667 40.4709C227.331 39.7429 227.163 38.9216 227.163 38.0069C227.163 37.0829 227.331 36.2616 227.667 35.5429C228.003 34.8149 228.488 34.2409 229.123 33.8209C229.757 33.4009 230.532 33.1909 231.447 33.1909C232.175 33.1909 232.805 33.3216 233.337 33.5829C233.869 33.8349 234.312 34.1896 234.667 34.6469C235.031 35.1043 235.306 35.6409 235.493 36.2569L234.681 36.8029C234.569 36.2616 234.377 35.7856 234.107 35.3749C233.845 34.9549 233.495 34.6283 233.057 34.3949C232.627 34.1616 232.095 34.0449 231.461 34.0449C230.723 34.0449 230.107 34.2176 229.613 34.5629C229.118 34.8989 228.745 35.3656 228.493 35.9629C228.25 36.5509 228.129 37.2323 228.129 38.0069C228.129 38.7723 228.25 39.4536 228.493 40.0509C228.745 40.6483 229.118 41.1196 229.613 41.4649C230.107 41.8009 230.723 41.9689 231.461 41.9689C232.095 41.9689 232.627 41.8523 233.057 41.6189C233.495 41.3856 233.845 41.0636 234.107 40.6529C234.377 40.2329 234.569 39.7523 234.681 39.2109L235.493 39.7569C235.306 40.3636 235.031 40.9003 234.667 41.3669C234.312 41.8243 233.869 42.1836 233.337 42.4449C232.805 42.6969 232.175 42.8229 231.447 42.8229ZM242.022 42.7109H241.098V33.3309H242.022V36.9989L241.98 38.5529L243.184 37.2649L246.908 33.3309H248.07L244.248 37.3209L244.15 37.3909L242.022 39.6449V42.7109ZM248.392 42.7109H247.258L243.66 37.3069L244.332 36.6489L248.392 42.7109ZM256.919 42.8229C256.005 42.8229 255.23 42.6129 254.595 42.1929C253.961 41.7729 253.475 41.1989 253.139 40.4709C252.803 39.7429 252.635 38.9216 252.635 38.0069C252.635 37.0829 252.803 36.2616 253.139 35.5429C253.475 34.8149 253.961 34.2409 254.595 33.8209C255.23 33.4009 256.005 33.1909 256.919 33.1909C257.647 33.1909 258.277 33.3216 258.809 33.5829C259.341 33.8349 259.785 34.1896 260.139 34.6469C260.503 35.1043 260.779 35.6409 260.965 36.2569L260.153 36.8029C260.041 36.2616 259.85 35.7856 259.579 35.3749C259.318 34.9549 258.968 34.6283 258.529 34.3949C258.1 34.1616 257.568 34.0449 256.933 34.0449C256.196 34.0449 255.58 34.2176 255.085 34.5629C254.591 34.8989 254.217 35.3656 253.965 35.9629C253.723 36.5509 253.601 37.2323 253.601 38.0069C253.601 38.7723 253.723 39.4536 253.965 40.0509C254.217 40.6483 254.591 41.1196 255.085 41.4649C255.58 41.8009 256.196 41.9689 256.933 41.9689C257.568 41.9689 258.1 41.8523 258.529 41.6189C258.968 41.3856 259.318 41.0636 259.579 40.6529C259.85 40.2329 260.041 39.7523 260.153 39.2109L260.965 39.7569C260.779 40.3636 260.503 40.9003 260.139 41.3669C259.785 41.8243 259.341 42.1836 258.809 42.4449C258.277 42.6969 257.647 42.8229 256.919 42.8229ZM273.655 42.7109H272.731V33.3309H273.655V42.7109ZM267.495 42.7109H266.571V33.3309H267.495V42.7109ZM273.207 38.3429H266.893V37.5169H273.207V38.3429ZM279.484 42.7109H278.518L282.284 33.3309H283.222L286.988 42.7109H285.966L283.222 35.7249L282.732 34.2689L282.242 35.7249L279.484 42.7109ZM285.21 39.8269H280.226V39.0149H285.21V39.8269ZM292.776 42.7109H291.852V33.3309H292.776V42.7109ZM300.167 42.7109H299.243V33.3309H300.069L304.647 39.9949L305.459 41.2409L305.403 40.0229V33.3309H306.327V42.7109H305.501L300.797 35.8789L300.111 34.8429L300.167 35.8929V42.7109Z" fill="white"/>
</g>
<defs>
<filter id="filter0_d_712_339" x="-0.4" y="0.6" width="331.54" height="85.2219" filterUnits="userSpaceOnUse" color-interpolation-filters="sRGB">
<feFlood flood-opacity="0" result="BackgroundImageFix"/>
<feColorMatrix in="SourceAlpha" type="matrix" values="0 0 0 0 0 0 0 0 0 0 0 0 0 0 0 0 0 0 127 0" result="hardAlpha"/>
<feOffset dy="4"/>
<feGaussianBlur stdDeviation="11.7"/>
<feComposite in2="hardAlpha" operator="out"/>
<feColorMatrix type="matrix" values="0 0 0 0 0 0 0 0 0 0 0 0 0 0 0 0 0 0 1 0"/>
<feBlend mode="normal" in2="BackgroundImageFix" result="effect1_dropShadow_712_339"/>
<feBlend mode="normal" in="SourceGraphic" in2="effect1_dropShadow_712_339" result="shape"/>
</filter>
<linearGradient id="paint0_linear_712_339" x1="57" y1="26.5" x2="184" y2="48" gradientUnits="userSpaceOnUse">
<stop/>
<stop offset="0.113021" stop-color="#FFD700"/>
<stop offset="0.281073" stop-color="#594B00"/>
<stop offset="0.851884" stop-color="#FFD700"/>
<stop offset="1"/>
</linearGradient>
<linearGradient id="paint1_linear_712_339" x1="57" y1="26.5" x2="184" y2="48" gradientUnits="userSpaceOnUse">
<stop/>
<stop offset="0.113021" stop-color="#FFD700"/>
<stop offset="0.281073" stop-color="#594B00"/>
<stop offset="0.851884" stop-color="#FFD700"/>
<stop offset="1"/>
</linearGradient>
<linearGradient id="paint2_linear_712_339" x1="57" y1="26.5" x2="184" y2="48" gradientUnits="userSpaceOnUse">
<stop/>
<stop offset="0.113021" stop-color="#FFD700"/>
<stop offset="0.281073" stop-color="#594B00"/>
<stop offset="0.851884" stop-color="#FFD700"/>
<stop offset="1"/>
</linearGradient>
<linearGradient id="paint3_linear_712_339" x1="57" y1="26.5" x2="184" y2="48" gradientUnits="userSpaceOnUse">
<stop/>
<stop offset="0.113021" stop-color="#FFD700"/>
<stop offset="0.281073" stop-color="#594B00"/>
<stop offset="0.851884" stop-color="#FFD700"/>
<stop offset="1"/>
</linearGradient>
<linearGradient id="paint4_linear_712_339" x1="57" y1="26.5" x2="184" y2="48" gradientUnits="userSpaceOnUse">
<stop/>
<stop offset="0.113021" stop-color="#FFD700"/>
<stop offset="0.281073" stop-color="#594B00"/>
<stop offset="0.851884" stop-color="#FFD700"/>
<stop offset="1"/>
</linearGradient>
<linearGradient id="paint5_linear_712_339" x1="57" y1="26.5" x2="184" y2="48" gradientUnits="userSpaceOnUse">
<stop/>
<stop offset="0.113021" stop-color="#FFD700"/>
<stop offset="0.281073" stop-color="#594B00"/>
<stop offset="0.851884" stop-color="#FFD700"/>
<stop offset="1"/>
</linearGradient>
<linearGradient id="paint6_linear_712_339" x1="57" y1="26.5" x2="184" y2="48" gradientUnits="userSpaceOnUse">
<stop/>
<stop offset="0.113021" stop-color="#FFD700"/>
<stop offset="0.281073" stop-color="#594B00"/>
<stop offset="0.851884" stop-color="#FFD700"/>
<stop offset="1"/>
</linearGradient>
<linearGradient id="paint7_linear_712_339" x1="57" y1="26.5" x2="184" y2="48" gradientUnits="userSpaceOnUse">
<stop/>
<stop offset="0.113021" stop-color="#FFD700"/>
<stop offset="0.281073" stop-color="#594B00"/>
<stop offset="0.851884" stop-color="#FFD700"/>
<stop offset="1"/>
</linearGradient>
<linearGradient id="paint8_linear_712_339" x1="57" y1="26.5" x2="184" y2="48" gradientUnits="userSpaceOnUse">
<stop/>
<stop offset="0.113021" stop-color="#FFD700"/>
<stop offset="0.281073" stop-color="#594B00"/>
<stop offset="0.851884" stop-color="#FFD700"/>
<stop offset="1"/>
</linearGradient>
<linearGradient id="paint9_linear_712_339" x1="57" y1="26.5" x2="184" y2="48" gradientUnits="userSpaceOnUse">
<stop/>
<stop offset="0.113021" stop-color="#FFD700"/>
<stop offset="0.281073" stop-color="#594B00"/>
<stop offset="0.851884" stop-color="#FFD700"/>
<stop offset="1"/>
</linearGradient>
<linearGradient id="paint10_linear_712_339" x1="57" y1="26.5" x2="184" y2="48" gradientUnits="userSpaceOnUse">
<stop/>
<stop offset="0.113021" stop-color="#FFD700"/>
<stop offset="0.281073" stop-color="#594B00"/>
<stop offset="0.851884" stop-color="#FFD700"/>
<stop offset="1"/>
</linearGradient>
<linearGradient id="paint11_linear_712_339" x1="57" y1="26.5" x2="184" y2="48" gradientUnits="userSpaceOnUse">
<stop/>
<stop offset="0.113021" stop-color="#FFD700"/>
<stop offset="0.281073" stop-color="#594B00"/>
<stop offset="0.851884" stop-color="#FFD700"/>
<stop offset="1"/>
</linearGradient>
<linearGradient id="paint12_linear_712_339" x1="57" y1="26.5" x2="184" y2="48" gradientUnits="userSpaceOnUse">
<stop/>
<stop offset="0.113021" stop-color="#FFD700"/>
<stop offset="0.281073" stop-color="#594B00"/>
<stop offset="0.851884" stop-color="#FFD700"/>
<stop offset="1"/>
</linearGradient>
</defs>
</svg>
